<svg width="71" height="71" viewBox="0 0 71 71" fill="none" xmlns="http://www.w3.org/2000/svg">
<circle cx="35.5" cy="35.5" r="35.5" fill="black"/>
<circle cx="16.5" cy="23.5" r="5.5" fill="white"/>
<circle cx="35.5" cy="12.5" r="5.5" fill="white"/>
<circle cx="55.5" cy="23.5" r="5.5" fill="white"/>
<circle cx="55.5" cy="46.5" r="5.5" fill="white"/>
<circle cx="35.5" cy="57.5" r="5.5" fill="white"/>
<circle cx="16.5" cy="46.5" r="5.5" fill="white"/>
<path d="M31.43 41.98C31.17 42.66 30.72 43 30.08 43H24.41C24.23 43 24.07 42.94 23.93 42.82C23.81 42.68 23.75 42.52 23.75 42.34L23.78 42.16L30.32 22.99C30.4 22.73 30.55 22.5 30.77 22.3C30.99 22.1 31.29 22 31.67 22H40.01C40.39 22 40.69 22.1 40.91 22.3C41.13 22.5 41.28 22.73 41.36 22.99L47.9 42.16L47.93 42.34C47.93 42.52 47.86 42.68 47.72 42.82C47.6 42.94 47.45 43 47.27 43H41.6C40.96 43 40.51 42.66 40.25 41.98L39.5 39.88H32.18L31.43 41.98ZM35.84 27.79L33.71 34.03H37.97L35.84 27.79Z" fill="white"/>
</svg>
