<svg width="210" height="48" viewBox="0 0 210 48" fill="none" xmlns="http://www.w3.org/2000/svg">
<path d="M0 0V4.2318H12.4069L0 16.6474V22.7911L22.7891 0H0Z" fill="white"/>
<path d="M30.5686 0L0 30.5739V37.1512L37.1409 0H30.5686Z" fill="white"/>
<path d="M0 44.6938V48H3.30961L47.9999 3.29451V0H44.6785L0 44.6938Z" fill="white"/>
<path d="M10.8438 47.9993L47.9987 10.8411V17.4114L17.4207 47.9993H10.8438Z" fill="white"/>
<path d="M25.2031 47.9989L48.0016 25.1985V31.3328L35.5806 43.7648L48.0016 43.7554L47.9828 47.9989H25.2031Z" fill="white"/>
<path d="M72 37.8259V35.4348L83.2423 21.7826H72.522V18.0803H89.0241V20.857L78.0227 34.3164H89.3453V37.8259H72Z" fill="white"/>
<path d="M102.99 38.25C99.296 38.25 96.5657 37.363 94.8392 35.589C93.1127 33.815 92.2695 31.2696 92.2695 27.953C92.2695 24.6364 93.1529 22.091 94.8794 20.317C96.6059 18.543 99.3361 17.656 102.99 17.656C106.684 17.656 109.414 18.543 111.141 20.317C112.867 22.091 113.75 24.6364 113.75 27.953C113.75 31.2696 112.907 33.815 111.181 35.589C109.414 37.363 106.684 38.25 102.99 38.25ZM102.99 34.3934C105.158 34.3934 106.684 33.8921 107.607 32.8894C108.531 31.8867 108.972 30.2284 108.972 27.953C108.972 25.6776 108.531 24.0193 107.607 23.0552C106.684 22.0525 105.158 21.5511 102.99 21.5511C100.862 21.5511 99.3361 22.0525 98.4127 23.0552C97.4892 24.0579 97.0475 25.6776 97.0475 27.953C97.0475 30.2284 97.4892 31.8867 98.4127 32.8894C99.296 33.8921 100.822 34.3934 102.99 34.3934Z" fill="white"/>
<path d="M118.332 37.8258V18.0802H122.668L122.869 20.1628C123.793 19.4686 124.917 18.8901 126.202 18.3888C127.487 17.8874 128.932 17.656 130.458 17.656C133.108 17.656 135.035 18.2345 136.28 19.43C137.484 20.6256 138.086 22.4767 138.086 25.022V37.8258H133.389V25.2534C133.389 23.7108 133.068 22.6695 132.425 22.0525C131.783 21.4354 130.538 21.1269 128.771 21.1269C127.687 21.1269 126.643 21.3197 125.64 21.744C124.596 22.1682 123.752 22.7081 123.07 23.3637V37.8258H118.332Z" fill="white"/>
<path d="M151.461 38.2499C149.614 38.2499 147.968 37.9414 146.562 37.3244C145.157 36.7073 144.033 35.7046 143.27 34.2777C142.507 32.8508 142.105 30.961 142.105 28.57C142.105 26.2175 142.507 24.2121 143.35 22.5923C144.193 20.9726 145.358 19.7385 146.843 18.89C148.329 18.0416 150.015 17.6559 151.902 17.6559C153.147 17.6559 154.231 17.8102 155.235 18.0802C156.199 18.3501 157.122 18.7743 158.045 19.3528V9.75H162.783V37.8257H158.768L158.447 35.8589C157.524 36.6687 156.52 37.2472 155.396 37.6329C154.271 38.0571 152.946 38.2499 151.461 38.2499ZM152.705 34.8176C154.833 34.8176 156.56 34.1234 158.005 32.7351V22.8623C156.64 21.7053 154.954 21.1268 152.906 21.1268C150.899 21.1268 149.413 21.7824 148.409 23.0551C147.405 24.3278 146.883 26.1789 146.883 28.6471C146.883 30.9996 147.365 32.6194 148.289 33.5064C149.212 34.3934 150.698 34.8176 152.705 34.8176Z" fill="white"/>
<path d="M174.388 38.2498C173.104 38.2498 171.899 38.0184 170.775 37.5942C169.651 37.1314 168.767 36.4758 168.125 35.5887C167.442 34.7017 167.121 33.5833 167.121 32.2335C167.121 30.3438 167.804 28.8398 169.129 27.6828C170.454 26.5258 172.542 25.9474 175.352 25.9474H181.937V25.0604C181.937 24.1348 181.776 23.3635 181.495 22.8236C181.174 22.2836 180.652 21.8594 179.849 21.628C179.046 21.3966 177.882 21.2424 176.356 21.2424C173.947 21.2424 171.658 21.5895 169.53 22.2836V18.9284C170.454 18.5813 171.578 18.2728 172.903 18.0414C174.228 17.81 175.673 17.6943 177.199 17.6943C180.21 17.6943 182.499 18.2728 184.065 19.4298C185.631 20.5868 186.434 22.515 186.434 25.1375V37.8255H182.419L182.097 35.8201C181.254 36.5915 180.21 37.2085 179.006 37.5942C177.801 38.0184 176.235 38.2498 174.388 38.2498ZM175.673 35.0103C177.079 35.0103 178.323 34.7789 179.367 34.3161C180.411 33.8533 181.294 33.2362 181.937 32.4649V28.994H175.432C174.027 28.994 173.023 29.264 172.421 29.7653C171.819 30.2667 171.498 31.0766 171.498 32.1178C171.498 33.1591 171.859 33.8919 172.582 34.3161C173.304 34.7789 174.348 35.0103 175.673 35.0103Z" fill="white"/>
<path d="M189.199 37.8259L197.029 27.7988L189.48 18.0803H194.539L199.558 24.675L204.577 18.0803H209.636L202.208 27.7988L209.998 37.8259H204.898L199.598 30.9612L194.298 37.8259H189.199Z" fill="white"/>
</svg>
